<svg width="29" height="29" viewBox="0 0 29 29" fill="none" xmlns="http://www.w3.org/2000/svg">
<path d="M1.56845 12.7127H10.9791C11.3951 12.7127 11.7941 12.551 12.0882 12.2632C12.3823 11.9754 12.5476 11.5851 12.5476 11.1781V1.97019C12.5476 1.56318 12.3823 1.17284 12.0882 0.885034C11.7941 0.597232 11.3951 0.435547 10.9791 0.435547H1.56845C1.15247 0.435547 0.753529 0.597232 0.459388 0.885034C0.165247 1.17284 0 1.56318 0 1.97019V11.1781C0 11.5851 0.165247 11.9754 0.459388 12.2632C0.753529 12.551 1.15247 12.7127 1.56845 12.7127ZM17.2529 12.7127H26.6636C27.0796 12.7127 27.4785 12.551 27.7727 12.2632C28.0668 11.9754 28.2321 11.5851 28.2321 11.1781V1.97019C28.2321 1.56318 28.0668 1.17284 27.7727 0.885034C27.4785 0.597232 27.0796 0.435547 26.6636 0.435547H17.2529C16.8369 0.435547 16.438 0.597232 16.1439 0.885034C15.8497 1.17284 15.6845 1.56318 15.6845 1.97019V11.1781C15.6845 11.5851 15.8497 11.9754 16.1439 12.2632C16.438 12.551 16.8369 12.7127 17.2529 12.7127ZM1.56845 28.0591H10.9791C11.3951 28.0591 11.7941 27.8975 12.0882 27.6097C12.3823 27.3219 12.5476 26.9315 12.5476 26.5245V17.3166C12.5476 16.9096 12.3823 16.5193 12.0882 16.2315C11.7941 15.9437 11.3951 15.782 10.9791 15.782H1.56845C1.15247 15.782 0.753529 15.9437 0.459388 16.2315C0.165247 16.5193 0 16.9096 0 17.3166V26.5245C0 26.9315 0.165247 27.3219 0.459388 27.6097C0.753529 27.8975 1.15247 28.0591 1.56845 28.0591ZM21.9583 28.0591C25.4183 28.0591 28.2321 25.306 28.2321 21.9206C28.2321 18.5351 25.4183 15.782 21.9583 15.782C18.4983 15.782 15.6845 18.5351 15.6845 21.9206C15.6845 25.306 18.4983 28.0591 21.9583 28.0591Z" fill="#545454"/>
</svg>
