<svg width="29" height="29" viewBox="0 0 29 29" fill="none" xmlns="http://www.w3.org/2000/svg">
<path d="M28.82 24.1947C28.5488 25.5232 27.8269 26.7172 26.7766 27.5746C25.7262 28.4321 24.4118 28.9003 23.0559 28.9H6.58724C5.23134 28.9003 3.91698 28.4321 2.86661 27.5746C1.81624 26.7172 1.09438 25.5232 0.8232 24.1947H11.0056L12.3254 25.5145C12.6531 25.8425 13.0423 26.1026 13.4706 26.2801C13.8989 26.4576 14.358 26.5489 14.8216 26.5489C15.2852 26.5489 15.7443 26.4576 16.1726 26.2801C16.6009 26.1026 16.99 25.8425 17.3178 25.5145L18.6376 24.1947H28.82ZM28.9376 21.842H20.9832C21.4375 21.3341 21.7351 20.7055 21.8399 20.0322C21.9447 19.3588 21.8523 18.6696 21.5739 18.0476C21.2955 17.4256 20.843 16.8975 20.271 16.5271C19.699 16.1568 19.032 15.9599 18.3506 15.9603V13.6077C19.0316 13.6072 19.698 13.4097 20.2693 13.0389C20.8406 12.6682 21.2924 12.14 21.5702 11.5183C21.848 10.8965 21.94 10.2075 21.835 9.53465C21.73 8.86175 21.4326 8.2336 20.9785 7.72598H28.9376V21.842ZM0.8232 5.37331H11.0103L12.3278 4.05581C12.9894 3.39495 13.8864 3.02374 14.8216 3.02374C15.7568 3.02374 16.6537 3.39495 17.3154 4.05581L18.6329 5.37331H28.82C28.5488 4.0448 27.8269 2.85078 26.7766 1.99334C25.7262 1.1359 24.4118 0.667692 23.0559 0.667969H6.58724C5.23134 0.667692 3.91698 1.1359 2.86661 1.99334C1.81624 2.85078 1.09438 4.0448 0.8232 5.37331ZM8.79875 12.5748C8.16054 11.9372 7.79075 11.0794 7.76537 10.1776C7.73999 9.27577 8.06095 8.39849 8.6623 7.72598H0.705566V21.842H8.65995C8.20565 21.3341 7.90813 20.7055 7.80331 20.0322C7.69848 19.3588 7.79085 18.6696 8.06925 18.0476C8.34765 17.4256 8.80017 16.8975 9.37216 16.5271C9.94415 16.1568 10.6111 15.9599 11.2926 15.9603V13.6077C10.3892 13.6077 9.48573 13.2642 8.79875 12.5748ZM19.1834 10.9115C19.0742 11.021 18.9444 11.108 18.8014 11.1673C18.6585 11.2266 18.5053 11.2571 18.3506 11.2571C18.1959 11.2571 18.0427 11.2266 17.8997 11.1673C17.7568 11.108 17.627 11.021 17.5177 10.9115L15.9979 9.38932V20.1787L17.5177 18.6565C17.7386 18.4356 18.0382 18.3115 18.3506 18.3115C18.663 18.3115 18.9626 18.4356 19.1834 18.6565C19.4043 18.8774 19.5284 19.177 19.5284 19.4893C19.5284 19.8017 19.4043 20.1013 19.1834 20.3222L15.6544 23.8512C15.5452 23.9607 15.4154 24.0476 15.2724 24.1069C15.1295 24.1663 14.9763 24.1968 14.8216 24.1968C14.6669 24.1968 14.5137 24.1663 14.3707 24.1069C14.2278 24.0476 14.098 23.9607 13.9887 23.8512L10.4597 20.3222C10.2389 20.1013 10.1148 19.8017 10.1148 19.4893C10.1148 19.177 10.2389 18.8774 10.4597 18.6565C10.6806 18.4356 10.9802 18.3115 11.2926 18.3115C11.605 18.3115 11.9045 18.4356 12.1254 18.6565L13.6453 20.1787V9.38932L12.1254 10.9115C12.0161 11.0209 11.8862 11.1076 11.7433 11.1668C11.6004 11.226 11.4473 11.2565 11.2926 11.2565C11.1379 11.2565 10.9847 11.226 10.8419 11.1668C10.699 11.1076 10.5691 11.0209 10.4597 10.9115C10.3504 10.8021 10.2636 10.6723 10.2044 10.5294C10.1452 10.3865 10.1148 10.2333 10.1148 10.0787C10.1148 9.92398 10.1452 9.77082 10.2044 9.62792C10.2636 9.48502 10.3504 9.35518 10.4597 9.2458L13.9887 5.7168C14.098 5.60725 14.2278 5.52034 14.3707 5.46103C14.5137 5.40173 14.6669 5.37121 14.8216 5.37121C14.9763 5.37121 15.1295 5.40173 15.2724 5.46103C15.4154 5.52034 15.5452 5.60725 15.6544 5.7168L19.1834 9.2458C19.293 9.35508 19.3799 9.48489 19.4392 9.6278C19.4985 9.77071 19.529 9.92392 19.529 10.0787C19.529 10.2334 19.4985 10.3866 19.4392 10.5295C19.3799 10.6724 19.293 10.8022 19.1834 10.9115Z" fill="#545454"/>
</svg>
