<svg width="19" height="19" viewBox="0 0 19 19" fill="none" xmlns="http://www.w3.org/2000/svg">
<path d="M9.5 0C7.62108 0 5.78435 0.557165 4.22209 1.60104C2.65982 2.64491 1.44218 4.12861 0.723149 5.86451C0.0041162 7.6004 -0.184015 9.51054 0.182544 11.3534C0.549104 13.1962 1.45389 14.8889 2.78249 16.2175C4.11109 17.5461 5.80383 18.4509 7.64665 18.8175C9.48946 19.184 11.3996 18.9959 13.1355 18.2769C14.8714 17.5578 16.3551 16.3402 17.399 14.7779C18.4428 13.2156 19 11.3789 19 9.5C19 8.25244 18.7543 7.0171 18.2769 5.86451C17.7994 4.71191 17.0997 3.66464 16.2175 2.78249C15.3354 1.90033 14.2881 1.20056 13.1355 0.723144C11.9829 0.245725 10.7476 0 9.5 0ZM13.585 7.2295L9.2435 12.9295C9.155 13.0445 9.04135 13.1376 8.91125 13.2019C8.78116 13.2661 8.63808 13.2996 8.493 13.3C8.3487 13.3008 8.20613 13.2687 8.07609 13.2061C7.94605 13.1436 7.83197 13.0522 7.7425 12.939L5.4245 9.9845C5.34778 9.88594 5.29122 9.77324 5.25805 9.65282C5.22488 9.5324 5.21575 9.40663 5.23119 9.28269C5.24663 9.15875 5.28633 9.03906 5.34802 8.93046C5.40972 8.82186 5.4922 8.72647 5.59075 8.64975C5.7898 8.49479 6.04225 8.42526 6.29256 8.45644C6.4165 8.47188 6.53619 8.51157 6.64479 8.57327C6.75339 8.63496 6.84878 8.71744 6.9255 8.816L8.474 10.792L12.065 6.042C12.1411 5.94219 12.2361 5.85836 12.3446 5.79527C12.4531 5.73219 12.573 5.69109 12.6974 5.67433C12.8218 5.65757 12.9482 5.66547 13.0696 5.69759C13.1909 5.7297 13.3047 5.7854 13.4045 5.8615C13.5043 5.9376 13.5881 6.03261 13.6512 6.14112C13.7143 6.24962 13.7554 6.36948 13.7722 6.49387C13.7889 6.61825 13.781 6.74472 13.7489 6.86605C13.7168 6.98738 13.6611 7.10119 13.585 7.201V7.2295Z" fill="#C6C6C6"/>
</svg>
