<svg width="86" height="65" viewBox="0 0 86 65" fill="none" xmlns="http://www.w3.org/2000/svg">
<path d="M8.0625 0C5.92419 0 3.87346 0.84944 2.36145 2.36145C0.849439 3.87346 0 5.92419 0 8.0625L0 56.4375C0 58.5758 0.849439 60.6265 2.36145 62.1385C3.87346 63.6506 5.92419 64.5 8.0625 64.5H77.9375C80.0758 64.5 82.1265 63.6506 83.6385 62.1385C85.1506 60.6265 86 58.5758 86 56.4375V8.0625C86 5.92419 85.1506 3.87346 83.6385 2.36145C82.1265 0.84944 80.0758 0 77.9375 0H8.0625ZM77.9375 5.375C78.6503 5.375 79.3338 5.65815 79.8379 6.16215C80.3419 6.66615 80.625 7.34973 80.625 8.0625V40.3125L60.3344 29.8474C59.8303 29.5949 59.2596 29.5073 58.703 29.597C58.1465 29.6867 57.6322 29.9492 57.233 30.3472L37.2918 50.2885L22.9942 40.764C22.478 40.4203 21.8588 40.2657 21.2417 40.3265C20.6245 40.3872 20.0473 40.6595 19.608 41.0972L5.38575 53.75V56.6525C5.37932 56.581 5.37574 56.5093 5.375 56.4375V8.0625C5.375 7.34973 5.65815 6.66615 6.16215 6.16215C6.66615 5.65815 7.34973 5.375 8.0625 5.375H77.9375Z" fill="#898989"/>
<path d="M33.3252 18.8125C33.3252 20.9508 32.4758 23.0015 30.9637 24.5135C29.4517 26.0256 27.401 26.875 25.2627 26.875C23.1244 26.875 21.0737 26.0256 19.5616 24.5135C18.0496 23.0015 17.2002 20.9508 17.2002 18.8125C17.2002 16.6742 18.0496 14.6235 19.5616 13.1115C21.0737 11.5994 23.1244 10.75 25.2627 10.75C27.401 10.75 29.4517 11.5994 30.9637 13.1115C32.4758 14.6235 33.3252 16.6742 33.3252 18.8125Z" fill="#898989"/>
</svg>
